<?xml version='1.0' encoding='iso-8859-1'?>
<svg version="1.1" xmlns="http://www.w3.org/2000/svg" viewBox="0 0 511.002 511.002" xmlns:xlink="http://www.w3.org/1999/xlink" enable-background="new 0 0 511.002 511.002">
  <g>
    <path d="m503.501,32h-16-224.5v-24.5c0-4.142-3.358-7.5-7.5-7.5s-7.5,3.358-7.5,7.5v24.5h-224.5-16c-4.142,0-7.5,3.358-7.5,7.5s3.358,7.5 7.5,7.5h8.5v304.5c0,12.958 10.542,23.5 23.5,23.5h101.976l-11.252,38.255c-0.004,0.014-0.008,0.028-0.012,0.042l-25.908,88.086c-1.168,3.974 1.105,8.143 5.079,9.312 0.707,0.208 1.418,0.307 2.12,0.307 3.241,0 6.231-2.119 7.192-5.386l24.299-82.616h225.012l24.299,82.616c0.961,3.268 3.951,5.386 7.192,5.386 0.701,0 1.414-0.099 2.12-0.307 3.974-1.169 6.248-5.338 5.079-9.312l-25.908-88.086c-0.004-0.014-0.008-0.028-0.012-0.042l-11.252-38.255h101.976c12.958,0 23.5-10.542 23.5-23.5v-304.5h8.5c4.142,0 7.5-3.358 7.5-7.5s-3.358-7.5-7.5-7.5zm-139.906,376h-216.188l9.706-33h196.776l9.706,33zm116.406-56.5c0,4.687-3.813,8.5-8.5,8.5h-111.873c-0.009,0-0.018,0-0.027,0h-208.189c-0.015,0-0.031,0-0.046,0h-111.865c-4.687,0-8.5-3.813-8.5-8.5v-304.5h449v304.5z"/>
    <path d="m174.884,205.51l-92.686,92.687c-2.929,2.929-2.929,7.678 0,10.606 1.464,1.464 3.384,2.197 5.303,2.197s3.839-0.732 5.303-2.197l92.686-92.686c3.314-3.314 8.707-3.315 12.021,0l49.373,49.373c4.438,4.439 10.34,6.883 16.617,6.883s12.179-2.445 16.617-6.883l135.883-135.883v53.893c0,4.142 3.358,7.5 7.5,7.5s7.5-3.358 7.5-7.5v-71.997c0-0.248-0.013-0.496-0.037-0.744-0.01-0.106-0.031-0.21-0.045-0.315-0.019-0.137-0.036-0.275-0.063-0.411-0.024-0.122-0.058-0.24-0.088-0.36-0.029-0.117-0.055-0.235-0.09-0.351-0.036-0.118-0.08-0.231-0.121-0.347-0.041-0.116-0.08-0.232-0.127-0.346-0.045-0.108-0.098-0.212-0.147-0.317-0.055-0.116-0.106-0.233-0.167-0.347-0.055-0.103-0.118-0.2-0.177-0.3-0.066-0.11-0.128-0.222-0.2-0.329-0.075-0.112-0.158-0.217-0.239-0.324-0.066-0.088-0.127-0.179-0.198-0.264-0.314-0.383-0.665-0.734-1.048-1.047-0.083-0.069-0.172-0.128-0.257-0.192-0.11-0.083-0.218-0.168-0.332-0.244-0.104-0.069-0.211-0.129-0.317-0.193-0.104-0.062-0.206-0.127-0.313-0.185-0.108-0.058-0.219-0.107-0.329-0.159-0.112-0.053-0.221-0.108-0.336-0.156-0.107-0.044-0.216-0.08-0.324-0.119-0.122-0.044-0.243-0.091-0.369-0.129-0.107-0.032-0.216-0.056-0.325-0.083-0.129-0.033-0.256-0.069-0.387-0.095-0.122-0.024-0.245-0.038-0.367-0.056-0.12-0.018-0.237-0.04-0.359-0.052-0.216-0.021-0.432-0.03-0.648-0.033-0.03,0-0.059-0.005-0.089-0.005h-72c-4.142,0-7.5,3.358-7.5,7.5s3.358,7.5 7.5,7.5h53.893l-135.884,135.883c-1.605,1.605-3.739,2.49-6.01,2.49s-4.405-0.884-6.011-2.49l-49.373-49.373c-9.162-9.162-24.071-9.162-33.233,0z"/>
  </g>
</svg>
