<?xml version="1.0" encoding="iso-8859-1"?>
<!-- Generator: Adobe Illustrator 19.0.0, SVG Export Plug-In . SVG Version: 6.00 Build 0)  -->
<svg version="1.1" id="Layer_1" xmlns="http://www.w3.org/2000/svg" xmlns:xlink="http://www.w3.org/1999/xlink" x="0px" y="0px"
	 viewBox="0 0 301.295 301.295" style="enable-background:new 0 0 301.295 301.295;" xml:space="preserve">
<g>
	<g>
		<path d="M257.172,44.124C228.718,15.67,190.887,0,150.648,0S72.577,15.67,44.124,44.124C15.67,72.577,0,110.408,0,150.648
			c0,66.734,46.46,127.908,110.982,145.4c12.896,3.285,26.359,5.247,39.666,5.247c40.239,0,78.07-15.67,106.524-44.124
			c28.453-28.453,44.124-66.285,44.124-106.524C301.295,110.408,285.625,72.578,257.172,44.124z M157.816,14.523
			c69.47,3.616,125.34,59.486,128.956,128.956H157.816V14.523z M150.648,286.958c-7.648,0-15.146-0.632-22.454-1.849l37.565-37.564
			c2.8-2.8,2.8-7.338,0-10.138c-2.8-2.799-7.338-2.799-10.138,0l-43.892,43.892c-19.515-5.825-37.214-15.912-52.002-29.177
			l41.621-41.621c2.799-2.8,2.799-7.338,0-10.138c-2.8-2.8-7.338-2.8-10.138,0l-41.643,41.643
			c-13.312-14.715-23.467-32.346-29.378-51.8l43.875-43.875c2.8-2.8,2.8-7.338,0-10.138c-2.8-2.8-7.338-2.8-10.138,0l-37.62,37.62
			c-1.294-7.531-1.969-15.272-1.969-23.166c0-72.758,57.298-132.385,129.142-136.125v136.125c0,3.96,3.21,7.169,7.169,7.169h136.125
			C283.032,229.66,223.406,286.958,150.648,286.958z"/>
	</g>
</g>
<g>
</g>
<g>
</g>
<g>
</g>
<g>
</g>
<g>
</g>
<g>
</g>
<g>
</g>
<g>
</g>
<g>
</g>
<g>
</g>
<g>
</g>
<g>
</g>
<g>
</g>
<g>
</g>
<g>
</g>
</svg>
