<?xml version="1.0" encoding="iso-8859-1"?>
<!-- Generator: Adobe Illustrator 19.0.0, SVG Export Plug-In . SVG Version: 6.00 Build 0)  -->
<svg version="1.1" id="Layer_1" xmlns="http://www.w3.org/2000/svg" xmlns:xlink="http://www.w3.org/1999/xlink" x="0px" y="0px"
	 viewBox="0 0 510.383 510.383" style="enable-background:new 0 0 510.383 510.383;" xml:space="preserve">
<g>
	<g>
		<g>
			<path d="M435.884,74.497C390.533,29.146,331.124,2.961,267.485,0v242.896h242.896C507.42,179.258,481.235,119.849,435.884,74.497
				z"/>
			<path d="M255.335,267.198v-0.001c-6.71,0-12.15-5.439-12.15-12.15V0C179.546,2.961,120.137,29.146,74.786,74.497
				C26.56,122.724,0,186.844,0,255.047c0,20.429,2.401,40.487,7.036,59.867L91.4,230.549c4.745-4.745,12.438-4.745,17.183,0
				s4.745,12.438,0,17.183l-93.675,93.675c11.273,31.449,28.764,60.537,51.831,85.759l87.855-87.855
				c4.746-4.745,12.439-4.744,17.183,0c4.745,4.745,4.745,12.438,0,17.183l-87.829,87.829
				c25.331,22.989,54.531,40.366,86.075,51.516l93.742-93.742c4.745-4.745,12.438-4.745,17.183,0s4.745,12.438,0,17.183
				l-84.337,84.337c19.026,4.457,38.697,6.765,58.726,6.765c68.202,0,132.323-26.56,180.549-74.786
				c45.351-45.352,71.536-104.76,74.497-168.399H255.335z"/>
		</g>
	</g>
</g>
<g>
</g>
<g>
</g>
<g>
</g>
<g>
</g>
<g>
</g>
<g>
</g>
<g>
</g>
<g>
</g>
<g>
</g>
<g>
</g>
<g>
</g>
<g>
</g>
<g>
</g>
<g>
</g>
<g>
</g>
</svg>
