<?xml version="1.0" encoding="iso-8859-1"?>
<!-- Generator: Adobe Illustrator 19.1.0, SVG Export Plug-In . SVG Version: 6.00 Build 0)  -->
<svg version="1.1" id="Capa_1" xmlns="http://www.w3.org/2000/svg" xmlns:xlink="http://www.w3.org/1999/xlink" x="0px" y="0px"
	 viewBox="0 0 488.2 488.2" style="enable-background:new 0 0 488.2 488.2;" xml:space="preserve">
<g>
	<g>
		<path d="M182.95,185.5c-32.6,32.5-33.8,84.5-3.7,118.5l0.9,0.7c-3.3,7.1-8.9,15.8-17.8,20.2c-2.9,1.4-2.3,5.8,1,6.3
			c9.8,1.5,23.8-0.2,36.8-10.1l0.2,0.1c33.2,19.5,76.6,15,105.1-13.5c33.8-33.8,33.8-88.6,0-122.4
			C271.55,151.6,216.75,151.6,182.95,185.5z M267.25,278.4c-3.5,4.3-8.1,7.1-13.4,8.6c-2.3,0.6-3.4,1.9-3.3,4.3s0,4.7,0,7.1
			c0,2.1-1.1,3.3-3.2,3.3c-2.6,0.1-5.1,0.1-7.7,0c-2.2,0-3.3-1.3-3.3-3.5c0-1.7,0-3.5,0-5.2c0-3.8-0.2-4-3.8-4.6
			c-4.7-0.7-9.3-1.8-13.6-3.9c-3.4-1.6-3.7-2.5-2.8-6c0.7-2.6,1.5-5.3,2.3-7.9c1-3,1.8-3.4,4.6-2c4.8,2.5,9.8,3.9,15.1,4.5
			c3.4,0.4,6.8,0.1,9.9-1.3c5.9-2.6,6.8-9.4,1.8-13.5c-1.7-1.4-3.6-2.4-5.6-3.3c-5.2-2.3-10.6-4-15.5-6.9
			c-7.9-4.8-13-11.3-12.4-20.9c0.7-10.9,6.8-17.7,16.9-21.4c4.1-1.5,4.2-1.4,4.2-5.8c0-1.5,0-2.9,0-4.4c0.1-3.3,0.6-3.8,3.9-3.9
			c1,0,2,0,3,0c6.9,0,6.9,0,6.9,6.9c0,4.9,0,4.9,4.9,5.7c3.7,0.6,7.3,1.7,10.7,3.2c1.9,0.8,2.6,2.2,2,4.2c-0.9,3-1.7,6-2.6,8.9
			c-0.9,2.8-1.8,3.2-4.5,1.9c-5.4-2.6-11-3.7-17-3.4c-1.6,0.1-3.1,0.3-4.5,0.9c-5.1,2.3-6,7.9-1.6,11.4c2.2,1.8,4.7,3.1,7.4,4.1
			c4.6,1.9,9.1,3.7,13.5,6.1C273.25,249.3,276.95,266.6,267.25,278.4z"/>
		<path d="M333.75,0h-179.3c-28.9,0-52.5,23.6-52.5,52.5v383.2c0,28.9,23.6,52.5,52.5,52.5h179.3c28.9,0,52.5-23.6,52.5-52.5V328.9
			V97.4V52.5C386.35,23.6,362.65,0,333.75,0z M266.75,466.2h-50.6c-7.5,0-13.6-6.1-13.6-13.6s6.1-13.6,13.6-13.6h50.6
			c7.5,0,13.6,6.1,13.6,13.6S274.25,466.2,266.75,466.2z M358.45,87.3v10.1v231.1v26.8v48c0,7.4-6.1,13.5-13.5,13.5h-201.6
			c-7.4,0-13.5-6.1-13.5-13.5V85c0-7.4,6.1-13.5,13.5-13.5h201.6c7.4,0,13.5,6.1,13.5,13.5V87.3z"/>
	</g>
</g>
<g>
</g>
<g>
</g>
<g>
</g>
<g>
</g>
<g>
</g>
<g>
</g>
<g>
</g>
<g>
</g>
<g>
</g>
<g>
</g>
<g>
</g>
<g>
</g>
<g>
</g>
<g>
</g>
<g>
</g>
</svg>
