<?xml version="1.0" encoding="iso-8859-1"?>
<!-- Generator: Adobe Illustrator 19.0.0, SVG Export Plug-In . SVG Version: 6.00 Build 0)  -->
<svg version="1.1" id="Layer_1" xmlns="http://www.w3.org/2000/svg" xmlns:xlink="http://www.w3.org/1999/xlink" x="0px" y="0px"
	 viewBox="0 0 512.001 512.001" style="enable-background:new 0 0 512.001 512.001;" xml:space="preserve">
<g>
	<g>
		<path d="M469.333,42.666H277.335V21.333C277.335,9.552,267.783,0,256.001,0c-11.782,0-21.333,9.552-21.333,21.333v21.333H42.67
			c-11.782,0-21.333,9.552-21.333,21.333v341.328c0,11.782,9.552,21.333,21.333,21.333h93.482l-27.23,54.462
			c-5.269,10.539-0.998,23.353,9.54,28.622c10.537,5.269,23.353,0.997,28.621-9.54l36.77-73.543h144.296l36.77,73.543
			c3.738,7.475,11.271,11.797,19.097,11.797c3.206,0,6.461-0.725,9.523-2.257c10.539-5.269,14.809-18.083,9.54-28.622l-27.23-54.462
			h93.482c11.782,0,21.333-9.552,21.333-21.333V63.999C490.666,52.218,481.115,42.666,469.333,42.666z M448,383.994H341.334H170.669
			H64.003V85.333H448V383.994z"/>
	</g>
</g>
<g>
	<g>
		<path d="M401.819,149.187c-8.33-8.331-21.838-8.331-30.169,0l-85.481,85.479l-45.253-45.256
			c-3.999-4.002-9.426-6.251-15.084-6.251c-5.659,0-11.085,2.249-15.084,6.248L110.181,289.974c-8.331,8.331-8.331,21.838,0,30.169
			c4.166,4.166,9.626,6.249,15.085,6.249c5.46,0,10.92-2.082,15.084-6.249l85.481-85.481l45.253,45.256
			c4.001,4.001,9.426,6.249,15.085,6.249c5.656,0,11.085-2.249,15.084-6.249l100.566-100.563
			C410.15,171.025,410.15,157.518,401.819,149.187z"/>
	</g>
</g>
<g>
</g>
<g>
</g>
<g>
</g>
<g>
</g>
<g>
</g>
<g>
</g>
<g>
</g>
<g>
</g>
<g>
</g>
<g>
</g>
<g>
</g>
<g>
</g>
<g>
</g>
<g>
</g>
<g>
</g>
</svg>
