<?xml version="1.0" encoding="iso-8859-1"?>
<!-- Generator: Adobe Illustrator 19.0.0, SVG Export Plug-In . SVG Version: 6.00 Build 0)  -->
<svg version="1.1" id="Layer_1" xmlns="http://www.w3.org/2000/svg" xmlns:xlink="http://www.w3.org/1999/xlink" x="0px" y="0px"
	 viewBox="0 0 512 512" style="enable-background:new 0 0 512 512;" xml:space="preserve">
<g transform="translate(1 1)">
	<g>
		<path style="fill:#E2E3E5;" d="M341.78,68.424h-17.356c0-6.942-1.736-27.769-11.281-37.315c-3.471-4.339-8.678-6.075-14.753-6.075
			h-86.78c-6.075,0-11.281,1.736-14.753,6.075c-9.546,9.546-11.281,30.373-11.281,37.315H168.22c0-1.736-0.868-32.976,16.488-49.464
			c6.942-7.81,15.62-11.281,26.902-11.281h86.78c11.281,0,19.959,3.471,26.902,11.281C342.647,36.315,341.78,67.556,341.78,68.424z"
			/>
		<path style="fill:#E2E3E5;" d="M272.356,59.746l4.339,442.576h0.868h126.698c32.976,0,33.844-34.712,33.844-34.712l17.356-407.864
			H272.356z"/>
	</g>
	<path style="fill:#CCCCCC;" d="M246.322,59.746l4.339,442.576h0.868h126.698c32.976,0,33.844-34.712,33.844-34.712l17.356-407.864
		H246.322z"/>
	<path style="fill:#FFFFFF;" d="M263.678,59.746l-4.339,442.576h-0.868H132.641c-33.844,0-33.844-34.712-33.844-34.712
		L81.441,59.746H263.678z"/>
	<path style="fill:#E2E3E5;" d="M107.475,59.746l17.356,407.864c0,0,0.868,34.712,33.844,34.712h118.02h0.868h74.631
		c32.976,0,33.844-34.712,33.844-34.712l17.356-407.864H107.475z"/>
	<g>
		<path style="fill:#B6B6B6;" d="M419.881,302.729L419.881,302.729c-5.207,0-8.678-4.339-8.678-8.678l8.678-225.627H90.119
			l1.736,52.068c0,5.207-3.471,8.678-8.678,8.678s-8.678-3.471-8.678-8.678l-1.736-60.746c0-2.603,0.868-4.339,2.603-6.075
			c1.736-1.736,3.471-2.603,6.075-2.603h347.119c2.603,0,4.339,0.868,6.075,2.603c1.736,1.736,2.603,4.339,2.603,6.075
			l-8.678,234.305C428.559,299.258,424.22,302.729,419.881,302.729z"/>
		<path style="fill:#B6B6B6;" d="M377.359,511H132.641c-32.976,0-42.522-28.637-42.522-43.39L77.102,172.559
			c0-5.207,3.471-8.678,8.678-8.678s8.678,3.471,8.678,8.678l13.017,295.051c0,2.603,1.736,26.034,25.166,26.034h245.586
			c24.298,0,25.166-23.431,25.166-26.034l5.207-104.136c0-5.207,4.339-8.678,8.678-8.678c5.207,0,8.678,4.339,8.678,8.678
			l-6.075,104.136C419.881,482.363,410.336,511,377.359,511z"/>
		<path style="fill:#B6B6B6;" d="M324.424,68.424L324.424,68.424c-5.207,0-8.678-4.339-8.678-8.678
			c0-6.942-1.736-27.769-11.281-37.315c-3.471-4.339-8.678-6.075-14.753-6.075h-86.78c-6.075,0-11.281,1.736-14.753,6.075
			c-9.546,9.546-11.281,30.373-11.281,37.315c0,5.207-3.471,8.678-8.678,8.678c-4.339,0-8.678-3.471-8.678-8.678
			c0-1.736-0.868-32.976,16.488-49.464C182.973,2.471,191.651-1,202.932-1h86.78c11.281,0,19.959,3.471,26.902,11.281
			c17.356,17.356,16.488,48.597,16.488,49.464C333.102,64.953,328.763,68.424,324.424,68.424z"/>
		<path style="fill:#B6B6B6;" d="M255,441.576c-5.207,0-8.678-3.471-8.678-8.678V146.525c0-5.207,3.471-8.678,8.678-8.678
			s8.678,3.471,8.678,8.678v286.373C263.678,438.105,260.207,441.576,255,441.576z"/>
		<path style="fill:#B6B6B6;" d="M168.22,441.576c-5.207,0-8.678-3.471-8.678-8.678V146.525c0-5.207,3.471-8.678,8.678-8.678
			s8.678,3.471,8.678,8.678v286.373C176.898,438.105,173.427,441.576,168.22,441.576z"/>
		<path style="fill:#B6B6B6;" d="M341.78,441.576c-5.207,0-8.678-3.471-8.678-8.678V146.525c0-5.207,3.471-8.678,8.678-8.678
			s8.678,3.471,8.678,8.678v286.373C350.458,438.105,346.986,441.576,341.78,441.576z"/>
		<path style="fill:#B6B6B6;" d="M454.593,68.424H55.407c-5.207,0-8.678-3.471-8.678-8.678s3.471-8.678,8.678-8.678h399.186
			c5.207,0,8.678,3.471,8.678,8.678S459.8,68.424,454.593,68.424z"/>
		<path style="fill:#B6B6B6;" d="M93.59,146.525c0,5.207-3.471,8.678-8.678,8.678s-8.678-3.471-8.678-8.678s3.471-8.678,8.678-8.678
			S93.59,141.319,93.59,146.525"/>
		<path style="fill:#B6B6B6;" d="M428.559,328.763c0,5.207-3.471,8.678-8.678,8.678c-5.207,0-8.678-3.471-8.678-8.678
			c0-5.207,3.471-8.678,8.678-8.678C425.088,320.085,428.559,323.556,428.559,328.763"/>
	</g>
</g>
<g>
</g>
<g>
</g>
<g>
</g>
<g>
</g>
<g>
</g>
<g>
</g>
<g>
</g>
<g>
</g>
<g>
</g>
<g>
</g>
<g>
</g>
<g>
</g>
<g>
</g>
<g>
</g>
<g>
</g>
</svg>
